# xmcd CD database file
#
# Track frame offsets:
#	150
#	18577
#	36272
#	51647
#	73622
#	92082
#	121082
#
# Disc length: 4440 seconds
#
# Revision: 0
# Processed by: cddbd v1.5.1PL0 Copyright (c) Steve Scherf et al.
# Submitted via: CDex 1.51
#
DISCID=5e115607
DTITLE=HINOIチーム - KING KONG
DYEAR=2005
DGENRE=Eurodance
TTITLE0=KING KONG
TTITLE1=SUPER EURO FLASH
TTITLE2=IKE IKE[New Generation Mix]
TTITLE3=KING KONG[Eurobeat Version]
TTITLE4=KING KONG[TV MIX]
TTITLE5=SUPER EURO FLASH[TV MIX]
TTITLE6=UNKNOWN
EXTD=YEAR: 2005.7.27
EXTT0=
EXTT1=
EXTT2=
EXTT3=
EXTT4=
EXTT5=
EXTT6=
PLAYORDER=
